<?xml version="1.0" encoding="UTF-8"?>
<svg width="512px" height="512px" viewBox="0 0 512 512" version="1.1" xmlns="http://www.w3.org/2000/svg" xmlns:xlink="http://www.w3.org/1999/xlink">
    <!-- Generator: Sketch 54.1 (76490) - https://sketchapp.com -->
    <title>sun-bright</title>
    <desc>Created with Sketch.</desc>
    <g id="Page-1" stroke="none" stroke-width="1" fill="none" fill-rule="evenodd">
        <g id="sun-bright" fill="#FFFFFF" fill-rule="nonzero">
            <path d="M256,136 C189.725,136 136,189.725 136,256 C136,322.273 189.725,376 256,376 C322.275,376 376,322.273 376,256 C376,189.725 322.275,136 256,136 Z M256,360 C198.654,360 152,313.346 152,256 C152,198.654 198.654,152 256,152 C313.346,152 360,198.654 360,256 C360,313.346 313.346,360 256,360 Z M256,112 C260.422,112 264,108.422 264,104 L264,8 C264,3.578 260.422,0 256,0 C251.578,0 248,3.578 248,8 L248,104 C248,108.422 251.578,112 256,112 Z M256,400 C251.578,400 248,403.578 248,408 L248,504 C248,508.422 251.578,512 256,512 C260.422,512 264,508.422 264,504 L264,408 C264,403.578 260.422,400 256,400 Z M504,248 L408,248 C403.578,248 400,251.578 400,256 C400,260.422 403.578,264 408,264 L504,264 C508.422,264 512,260.422 512,256 C512,251.578 508.422,248 504,248 Z M112,256 C112,251.578 108.422,248 104,248 L8,248 C3.578,248 0,251.578 0,256 C0,260.422 3.578,264 8,264 L104,264 C108.422,264 112,260.422 112,256 Z M363.484,156.516 C365.531,156.516 367.578,155.734 369.141,154.172 L421.656,101.656 C424.781,98.531 424.781,93.469 421.656,90.344 C418.531,87.219 413.469,87.219 410.344,90.344 L357.828,142.859 C354.703,145.984 354.703,151.047 357.828,154.172 C359.391,155.734 361.438,156.516 363.484,156.516 Z M142.859,357.828 L90.344,410.344 C87.219,413.469 87.219,418.531 90.344,421.656 C91.906,423.219 93.953,424 96,424 C98.047,424 100.094,423.219 101.656,421.656 L154.172,369.141 C157.297,366.016 157.297,360.953 154.172,357.828 C151.047,354.703 145.984,354.703 142.859,357.828 Z M369.141,357.828 C366.016,354.703 360.953,354.703 357.828,357.828 C354.703,360.953 354.703,366.016 357.828,369.141 L410.344,421.656 C411.906,423.219 413.953,424 416,424 C418.047,424 420.094,423.219 421.656,421.656 C424.781,418.531 424.781,413.469 421.656,410.344 L369.141,357.828 Z M142.859,154.172 C144.422,155.734 146.469,156.516 148.516,156.516 C150.563,156.516 152.609,155.734 154.172,154.172 C157.297,151.047 157.297,145.984 154.172,142.859 L101.656,90.344 C98.531,87.219 93.469,87.219 90.344,90.344 C87.219,93.469 87.219,98.531 90.344,101.656 L142.859,154.172 Z" id="Shape"></path>
        </g>
    </g>
</svg>