<?xml version="1.0" encoding="UTF-8"?>
<svg width="414px" height="457px" viewBox="0 0 414 457" version="1.1" xmlns="http://www.w3.org/2000/svg" xmlns:xlink="http://www.w3.org/1999/xlink">
    <!-- Generator: Sketch 54.1 (76490) - https://sketchapp.com -->
    <title>01n</title>
    <desc>Created with Sketch.</desc>
    <g id="Page-1" stroke="none" stroke-width="1" fill="none" fill-rule="evenodd">
        <g id="Add-City" transform="translate(-16.000000, 0.000000)" fill="#FFFFFF" fill-rule="nonzero">
            <g id="01n" transform="translate(16.000000, 0.000000)">
                <path d="M379.170466,326.218616 C289.253948,343.342513 206.232672,274.600668 206.232672,183.283332 C206.232672,130.73656 234.392703,82.6099526 279.908612,56.7081853 C302.955207,43.5922371 297.158315,8.6529569 270.972815,3.81611638 C257.212918,1.27956154 243.250489,0.00224061759 229.258746,0 C103.154703,0 0.844952586,102.202681 0.844952586,228.413793 C0.844952586,354.517836 103.048526,456.827586 229.258746,456.827586 C299.68425,456.827586 364.057681,424.774707 406.680944,372.258272 C423.496125,351.540427 405.15878,321.267569 379.170466,326.218616 Z M229.258746,428.275862 C118.87778,428.275862 29.3966767,338.794759 29.3966767,228.413793 C29.3966767,118.032828 118.87778,28.5517241 229.258746,28.5517241 C241.735849,28.5517241 253.942603,29.7062845 265.787108,31.8931681 C213.169849,61.8367888 177.680948,118.412922 177.680948,183.283332 C177.680948,292.677478 277.266685,374.689629 384.511422,354.265332 C347.867961,399.41453 291.93781,428.275862 229.258746,428.275862 Z" id="Shape"></path>
            </g>
        </g>
    </g>
</svg>