<?xml version="1.0" encoding="UTF-8"?>
<svg width="640px" height="512px" viewBox="0 0 640 512" version="1.1" xmlns="http://www.w3.org/2000/svg" xmlns:xlink="http://www.w3.org/1999/xlink">
    <!-- Generator: Sketch 54.1 (76490) - https://sketchapp.com -->
    <title>clouds-sun-light</title>
    <desc>Created with Sketch.</desc>
    <g id="Page-1" stroke="none" stroke-width="1" fill="none" fill-rule="evenodd">
        <g id="Add-City" transform="translate(-744.000000, 0.000000)" fill="#FFFFFF" fill-rule="nonzero">
            <g id="clouds-sun-light" transform="translate(744.000000, 0.000000)">
                <path d="M640,258.3 C640,206.7 599.8,164.8 550.4,164.8 L549.9,164.8 C533.3,124.1 494.6,95.6 450.5,95.6 C404.1,95.6 364.3,125.7 349,169.8 C323.7,178.6 303.8,198.9 294.3,224.7 C246,229.7 208,270.2 208,319.8 C208,321.6 208.1,323.5 208.2,325.4 C170.2,338.6 144,374.6 144,415.9 C144,468.9 187.1,512 240,512 L480,512 C532.9,512 576,468.9 576,415.9 C576,391.2 566.6,368.8 551.2,351.8 C600.2,351.3 640,309.6 640,258.3 Z M480,480 L240,480 C204.7,480 176,451.3 176,415.9 C176,384.9 198.2,358.4 228.8,353 L245.3,350.1 L241.7,333.8 C240.6,328.8 240,324.2 240,319.9 C240,284.6 268.7,255.8 304,255.8 C328.6,255.8 351.2,270.3 361.8,292.8 L370.4,311.2 L386.2,298.5 C395,291.5 405.3,287.8 416,287.8 C442.5,287.8 464,309.3 464,335.8 L464,351.8 L480,351.8 C515.3,351.8 544,380.5 544,415.9 C544,451.3 515.3,480 480,480 Z M550.4,319.8 L494.3,319.8 C486.8,283.3 454.6,255.7 416,255.7 C404,255.7 392.3,258.4 381.6,263.6 C368.6,245.6 349.6,232.8 328.4,227.1 C338,209.8 355.1,198 375.1,197 C380.7,157.7 412.1,127.6 450.4,127.6 C490.7,127.6 523.3,160.9 526.3,203.1 C533.7,199.4 541.6,196.8 550.3,196.8 C582.1,196.8 607.9,224.3 607.9,258.3 C608,292.3 582.2,319.8 550.4,319.8 Z M165.5,312.1 C163.4,311.1 161.2,310.4 158.9,310.4 C157.9,310.4 156.8,310.5 155.8,310.7 L92.6,323.2 L105.1,260 C106.3,253.7 103.7,247.2 98.3,243.5 L44.8,207.7 L98.3,171.9 C103.7,168.3 106.3,161.8 105.1,155.4 L92.6,92.2 L155.8,104.7 C162.3,106 168.6,103.2 172.2,97.9 L208,44.4 L243.8,98 C247.4,103.3 253.7,106.1 260.2,104.8 L323.4,92.3 L311.3,153.5 C315.5,150.7 319.7,148 324.3,145.7 C331.6,130 341.8,116.3 353.6,104.5 L359.4,75 C360.4,69.8 358.8,64.4 355,60.6 C351.2,56.8 346,55.1 340.6,56.2 L264.4,71.3 L221.3,6.7 C215.3,-2.2 200.7,-2.2 194.7,6.7 L151.5,71.3 L75.3,56.1 C70,55 64.7,56.8 60.9,60.5 C57.1,64.3 55.5,69.7 56.5,74.9 L71.6,151.2 L7.1,194.4 C2.7,197.4 5.15143483e-14,202.4 5.15143483e-14,207.7 C0,213 2.7,218 7.1,221 L71.6,264.2 L56.5,340.4 C55.5,345.7 57.1,351.1 60.9,354.8 C64.7,358.5 70.1,360.2 75.3,359.2 L131.6,348.1 C140.4,334.1 151.9,321.8 165.5,312.1 L165.5,312.1 Z M208,149.8 C236.8,149.8 260.5,171 264.9,198.6 C267.3,197.8 269.7,196.8 272.2,196.2 C277.2,187.2 283.4,179.1 290.2,171.7 C276.3,140 244.7,117.8 208,117.8 C158.5,117.8 118.2,158.1 118.2,207.7 C118.2,247.2 143.9,280.4 179.3,292.5 C181.6,281.9 185.2,271.9 189.9,262.4 C166.9,254.8 150.1,233.3 150.1,207.7 C150.2,175.8 176.1,149.8 208,149.8 Z" id="Shape"></path>
            </g>
        </g>
    </g>
</svg>