<?xml version="1.0" encoding="UTF-8"?>
<svg width="640px" height="512px" viewBox="0 0 640 512" version="1.1" xmlns="http://www.w3.org/2000/svg" xmlns:xlink="http://www.w3.org/1999/xlink">
    <!-- Generator: Sketch 54.1 (76490) - https://sketchapp.com -->
    <title>Shape</title>
    <desc>Created with Sketch.</desc>
    <g id="Page-1" stroke="none" stroke-width="1" fill="none" fill-rule="evenodd">
        <g id="Add-City" transform="translate(0.000000, -384.000000)" fill="#FFFFFF" fill-rule="nonzero">
            <g id="clouds-moon-light" transform="translate(0.000000, 384.000000)">
                <path d="M462.6,321.1 C455.6,284.1 423,256 384,256 C384,203.1 340.9,160 288,160 L282.5,160 C269.2,122.2 233,96 192,96 C151,96 114.8,122.2 101.5,160 L96,160 C43.1,160 -1.13686838e-13,203.1 -1.13686838e-13,256 C-1.13686838e-13,308.9 43.1,352 96,352 L136.8,352 C121.4,369.1 112,391.5 112,416 C112,468.9 155.1,512 208,512 L448,512 C500.9,512 544,468.9 544,416 C544,368 508.6,328.2 462.6,321.1 Z M96,320 C60.7,320 32,291.3 32,256 C32,220.7 60.7,192 96,192 L126.7,192 L129.3,179.2 C135.3,149.5 161.7,128 192,128 C222.3,128 248.7,149.5 254.7,179.2 L257.3,192 L288,192 C323.3,192 352,220.7 352,256 C352,258.6 351.3,261 351,263.4 C350.6,263.6 350.1,263.7 349.6,263.9 C331.8,239.2 302.9,224 272,224 C219.1,224 176,267.1 176,320 L96,320 Z M448,480 L208,480 C172.7,480 144,451.3 144,416 C144,385 166.2,358.6 196.8,353.2 L213.3,350.3 L209.7,334 C208.6,329 208,324.4 208,320.1 C208,284.8 236.7,256.1 272,256.1 C296.6,256.1 319.2,270.6 329.7,293.1 L338.3,311.5 L354.1,298.8 C362.9,291.8 373.2,288.1 383.9,288.1 C410.4,288.1 431.9,309.6 431.9,336.1 L431.9,352.1 L447.9,352.1 C483.2,352.1 511.9,380.8 511.9,416.1 C511.9,451.4 483.3,480 448,480 Z M637.8,249.4 C634,241.3 625.8,236.1 616.9,236.1 L615.4,236.1 L612.5,236.5 C605.9,237.7 599.3,238.4 592.7,238.4 C535.5,238.4 489,192.2 489,135.3 C489,98.3 509.1,64 541.6,45.7 C550.2,40.9 554.7,31.5 553,21.8 C551.4,12.1 544,4.7 534.3,2.9 C524.2,0.9 513.8,0 503.5,0 C420.5,0 351.7,59.8 337.5,138.2 C348.4,142.8 358.5,148.9 367.7,156.3 C373.7,86.8 431.9,32 503.5,32 L505.4,32 C475,57.4 457,95.2 457,135.3 C457,209.8 517.9,270.4 592.7,270.4 L593.7,270.4 C570.2,290.9 540.2,302.4 508.6,303.6 C521.7,310.8 533.3,320.2 543.1,331.3 C578.8,322.8 611,302.9 634.7,273.9 C640.5,266.9 641.6,257.5 637.8,249.4 L637.8,249.4 Z" id="Shape"></path>
            </g>
        </g>
    </g>
</svg>