<?xml version="1.0" encoding="UTF-8"?>
<svg width="640px" height="512px" viewBox="0 0 640 512" version="1.1" xmlns="http://www.w3.org/2000/svg" xmlns:xlink="http://www.w3.org/1999/xlink">
    <!-- Generator: Sketch 54.1 (76490) - https://sketchapp.com -->
    <title>clouds-light</title>
    <desc>Created with Sketch.</desc>
    <g id="Page-1" stroke="none" stroke-width="1" fill="none" fill-rule="evenodd">
        <g id="Add-City" transform="translate(-692.000000, -651.000000)" fill="#FFFFFF" fill-rule="nonzero">
            <g id="clouds-moon-light" transform="translate(0.000000, 651.000000)">
                <g id="clouds-light" transform="translate(692.000000, 0.000000)">
                    <path d="M543.7,304.3 C539.8,259.4 502,224 456,224 C448.9,224 442,225.1 435.3,226.7 C443.2,211.4 448,194.3 448,176 C448,114.2 397.8,64 336,64 C325.5,64 315.1,65.5 305,68.5 C283,27 239.4,0 192,0 C130.2,0 78.2,43.9 66.9,103.8 C27.5,115.6 0,151.8 0,193.8 C0,245.8 42.3,288 94.2,288 L194.4,288 C192.8,295.8 192,303.8 192,312 L192,312.4 C153.7,328.4 128,365.9 128,408 C128,465.3 174.7,512 232,512 L536,512 C593.3,512 640,465.3 640,408 C640,353.2 597.4,308.2 543.7,304.3 Z M94.2,256 C59.9,256 32,228.1 32,193.8 C32,163.5 53.8,137.8 83.8,132.7 L95.8,130.7 L97,118.6 C102,69.2 142.8,32 192,32 C231.5,32 267.5,57 281.6,94.3 L287.6,110.3 L303.1,103.3 C313.7,98.5 324.8,96 336,96 C380.1,96 416,131.9 416,176 C416,195.9 408.6,214.1 396.3,228.2 C374.1,205.7 344.3,192 312,192 C266.2,192 226.7,218.1 206.5,256 L94.2,256 L94.2,256 Z M536,480 L232,480 C192.3,480 160,447.7 160,408 C160,375.7 181.9,347.3 213.3,338.8 L226.6,335.2 L224.6,318 C224.3,316 224,314 224,312 C224,263.5 263.5,224 312,224 C344.2,224 373.8,241.9 389.2,270.8 L399.8,290.6 L415,274.1 C425.8,262.4 440.4,256 456,256 C486.9,256 512,281.1 512,312 C512,313.6 511.7,315.1 511.2,318.9 L508.7,338.9 L532.2,336.5 C533.4,336.3 534.7,336.1 536,336.1 C575.7,336.1 608,368.4 608,408.1 C608,447.8 575.7,480 536,480 Z" id="Shape"></path>
                </g>
            </g>
        </g>
    </g>
</svg>