<?xml version="1.0" encoding="UTF-8"?>
<svg width="512px" height="512px" viewBox="0 0 512 512" version="1.1" xmlns="http://www.w3.org/2000/svg" xmlns:xlink="http://www.w3.org/1999/xlink">
    <!-- Generator: Sketch 54.1 (76490) - https://sketchapp.com -->
    <title>cloud-rain-light</title>
    <desc>Created with Sketch.</desc>
    <g id="Page-1" stroke="none" stroke-width="1" fill="none" fill-rule="evenodd">
        <g id="Add-City" transform="translate(-692.000000, -1081.000000)" fill="#FFFFFF" fill-rule="nonzero">
            <g id="cloud-rain-light" transform="translate(692.000000, 1081.000000)">
                <path d="M118.5,369.2 C115.7,359 106.7,352.1 96.2,352 C84.6,352.7 76.5,358.8 73.5,369.1 C68.8,385.4 61.7,396 54.7,406.2 C46.1,418.9 37.3,432 37.3,451.5 C37.3,484.9 63.6,512 96,512 C128.4,512 154.7,484.9 154.7,451.5 C154.7,431.9 145.9,418.9 137.3,406.3 C130.3,396 123.2,385.5 118.5,369.2 Z M96,480 C81.3,480 69.3,467.2 69.3,451.5 C69.3,442.2 73.4,435.7 81.2,424.2 C85.8,417.4 91.1,409.5 95.9,399.6 C100.7,409.5 106.1,417.4 110.7,424.2 C118.5,435.7 122.6,442.2 122.6,451.5 C122.7,467.2 110.7,480 96,480 Z M278.5,369.2 C275.7,359 266.7,352.1 256.2,352 L256,352 C245.5,352 236.5,358.8 233.5,369.1 C228.8,385.4 221.7,396 214.7,406.2 C206.1,418.9 197.3,432 197.3,451.5 C197.3,484.9 223.6,512 256,512 C288.4,512 314.7,484.9 314.7,451.5 C314.7,431.9 305.9,418.9 297.3,406.3 C290.3,396 283.2,385.5 278.5,369.2 Z M256,480 C241.3,480 229.3,467.2 229.3,451.5 C229.3,442.2 233.4,435.7 241.2,424.2 C245.8,417.4 251.1,409.5 255.9,399.6 C260.7,409.5 266.1,417.4 270.7,424.2 C278.5,435.7 282.6,442.2 282.6,451.5 C282.7,467.2 270.7,480 256,480 L256,480 Z M438.5,369.2 C435.7,359 426.7,352.1 416.2,352 C405.8,352.7 396.5,358.8 393.5,369.1 C388.8,385.4 381.7,396 374.7,406.2 C366.1,418.9 357.3,432 357.3,451.5 C357.3,484.9 383.6,512 416,512 C448.4,512 474.7,484.9 474.7,451.5 C474.7,431.9 465.9,418.9 457.3,406.3 C450.3,396 443.2,385.5 438.5,369.2 Z M416,480 C401.3,480 389.3,467.2 389.3,451.5 C389.3,442.2 393.4,435.7 401.2,424.2 C405.8,417.4 411.1,409.5 415.9,399.6 C420.7,409.5 426.1,417.4 430.7,424.2 C438.5,435.7 442.6,442.2 442.6,451.5 C442.7,467.2 430.7,480 416,480 L416,480 Z M415.7,112.3 C411.8,67.4 373.9,32 328,32 C310.2,32 293.2,37.3 278.8,47.2 C256.3,17.7 221.5,0 184,0 C117.8,0 64,53.8 64,120 L64,120.4 C25.7,136.4 0,173.9 0,216 C0,273.3 46.7,320 104,320 L408,320 C465.3,320 512,273.3 512,216 C512,161.2 469.4,116.2 415.7,112.3 Z M408,288 L104,288 C64.3,288 32,255.7 32,216 C32,183.7 53.9,155.3 85.3,146.8 L98.6,143.2 L96.6,126 C96.3,124 96,122 96,120 C96,71.5 135.5,32 184,32 C216.2,32 245.8,49.9 261.2,78.8 L271.8,98.6 L287,82.1 C297.9,70.4 312.4,64 328,64 C358.9,64 384,89.1 384,120 C384,121.6 383.7,123.1 383.2,126.9 L380.7,146.9 L404.2,144.5 C405.4,144.3 406.7,144.1 408,144.1 C447.7,144.1 480,176.4 480,216.1 C480,255.8 447.7,288 408,288 Z" id="Shape"></path>
            </g>
        </g>
    </g>
</svg>