<?xml version="1.0" encoding="UTF-8"?>
<svg width="640px" height="512px" viewBox="0 0 640 512" version="1.1" xmlns="http://www.w3.org/2000/svg" xmlns:xlink="http://www.w3.org/1999/xlink">
    <!-- Generator: Sketch 54.1 (76490) - https://sketchapp.com -->
    <title>cloud-sun-rain-light</title>
    <desc>Created with Sketch.</desc>
    <g id="Page-1" stroke="none" stroke-width="1" fill="none" fill-rule="evenodd">
        <g id="Add-City" transform="translate(0.000000, -1650.000000)" fill="#FFFFFF" fill-rule="nonzero">
            <g id="cloud-sun-rain-light" transform="translate(0.000000, 1650.000000)">
                <path d="M298.2,418.075 C290.6,413.775 280.8,416.275 276.4,424.075 L239.8,488.075 C235.4,495.775 238.1,505.475 245.8,509.875 C248.3,511.275 251,511.975 253.7,511.975 C259.2,511.975 264.6,509.075 267.6,503.875 L304.2,439.875 C308.6,432.175 305.9,422.475 298.2,418.075 L298.2,418.075 Z M192,139.975 C218.4,139.975 240,159.975 243.1,185.575 C247.9,181.975 252.9,178.675 258.2,175.675 C259.7,167.275 262.1,159.175 265,151.375 C250.7,125.675 223.5,107.975 192,107.975 C145.8,107.975 108.3,145.575 108.3,191.775 C108.3,237.975 145.8,275.575 192,275.575 C192.3,275.575 192.6,275.475 192.9,275.475 C194,264.075 196.6,253.075 200.6,242.675 C197.8,243.175 195,243.575 192.1,243.575 C163.6,243.575 140.4,220.375 140.4,191.875 C140.3,163.275 163.5,139.975 192,139.975 L192,139.975 Z M160.3,291.675 C156.7,286.375 150.4,283.575 143.9,284.875 L87.9,295.975 L99,239.975 C100.2,233.575 97.6,227.175 92.2,223.575 L44.8,191.775 L92.2,159.975 C97.6,156.375 100.2,149.875 99,143.575 L87.9,87.575 L143.9,98.675 C150.4,99.975 156.7,97.275 160.3,91.875 L192,44.375 L223.8,91.875 C227.4,97.175 233.8,99.975 240.2,98.675 L319.6,82.975 C328.3,81.275 333.9,72.875 332.2,64.175 C330.5,55.475 321.9,49.675 313.4,51.575 L244.5,65.175 L205.3,6.675 C199.4,-2.225 184.7,-2.225 178.7,6.675 L139.6,65.175 L70.6,51.475 C65.3,50.375 59.9,52.075 56.2,55.875 C52.4,59.675 50.8,65.075 51.8,70.375 L65.5,139.375 L7.1,178.475 C2.7,181.475 0,186.375 0,191.775 C0,197.075 2.7,202.075 7.1,205.075 L65.5,244.175 L51.8,313.175 C50.8,318.475 52.4,323.875 56.2,327.675 C60,331.475 65.2,333.175 70.6,332.075 L139.5,318.375 L178.6,376.875 C181.7,381.475 186.8,383.975 191.9,383.975 C195,383.975 198.1,383.075 200.8,381.275 C208.1,376.375 210.1,366.375 205.2,359.075 L160.3,291.675 Z M490.2,418.075 C482.6,413.775 472.8,416.275 468.4,424.075 L431.8,488.075 C427.4,495.775 430.1,505.475 437.8,509.875 C440.3,511.275 443,511.975 445.7,511.975 C451.2,511.975 456.6,509.075 459.6,503.875 L496.2,439.875 C500.6,432.175 497.9,422.475 490.2,418.075 L490.2,418.075 Z M575.3,197.275 C570,158.175 536.5,127.975 496,127.975 C487.4,127.975 479,129.375 470.8,132.275 C451.1,109.375 422.6,95.975 392,95.975 C335.5,95.975 289.3,141.275 288,197.575 C250.2,210.875 224,246.875 224,287.975 C224,340.875 267.1,383.975 320,383.975 L544,383.975 C596.9,383.975 640,340.875 640,287.975 C640,246.675 613.4,210.375 575.3,197.275 Z M544,351.975 L320,351.975 C284.7,351.975 256,323.275 256,287.975 C256,257.375 277.8,230.975 308,225.175 L322.5,222.375 L320.5,204.375 C320.3,202.875 320.1,201.475 320.1,199.975 C320.1,160.275 352.4,127.975 392.1,127.975 C416.4,127.975 438.9,140.175 452.3,160.775 L460.4,173.175 L473.4,166.075 C506.1,148.275 544.1,174.275 544.2,206.475 L544,222.675 L556.8,225.275 C586.6,231.275 608.1,257.575 608.1,287.975 C608,323.275 579.3,351.975 544,351.975 L544,351.975 Z M586.2,418.075 C578.6,413.775 568.8,416.275 564.4,424.075 L527.8,488.075 C523.4,495.775 526.1,505.475 533.8,509.875 C536.3,511.275 539,511.975 541.7,511.975 C547.2,511.975 552.6,509.075 555.6,503.875 L592.2,439.875 C596.6,432.175 593.9,422.475 586.2,418.075 L586.2,418.075 Z M394.2,418.075 C386.6,413.775 376.8,416.275 372.4,424.075 L335.8,488.075 C331.4,495.775 334.1,505.475 341.8,509.875 C344.3,511.275 347,511.975 349.7,511.975 C355.2,511.975 360.6,509.075 363.6,503.875 L400.2,439.875 C404.6,432.175 401.9,422.475 394.2,418.075 L394.2,418.075 Z" id="Shape"></path>
            </g>
        </g>
    </g>
</svg>