<?xml version="1.0" encoding="UTF-8"?>
<svg width="576px" height="512px" viewBox="0 0 576 512" version="1.1" xmlns="http://www.w3.org/2000/svg" xmlns:xlink="http://www.w3.org/1999/xlink">
    <!-- Generator: Sketch 54.1 (76490) - https://sketchapp.com -->
    <title>cloud-moon-rain-light</title>
    <desc>Created with Sketch.</desc>
    <g id="Page-1" stroke="none" stroke-width="1" fill="none" fill-rule="evenodd">
        <g id="Add-City" transform="translate(-756.000000, -1650.000000)" fill="#FFFFFF" fill-rule="nonzero">
            <g id="cloud-moon-rain-light" transform="translate(756.000000, 1650.000000)">
                <path d="M573.9,237.5 C570.3,229.8 562.4,224.9 554,224.9 L552.6,224.9 L549.8,225.3 C543.5,226.5 537.2,227.1 530.9,227.1 C476.5,227.1 432.2,183.1 432.2,128.9 C432.2,93.7 451.4,61 482.3,43.6 C490.5,39 494.7,30 493.2,20.8 C491.6,11.5 484.7,4.5 475.4,2.8 C465.7,0.9 455.8,0 446,0 C378.9,0 322.4,41.4 298.3,99.5 C308.5,102 318.3,105.8 327.3,110.9 C346.4,65.3 391.2,32.9 443.8,32 C416.5,56.4 400.3,91.6 400.3,128.8 C400.3,199.5 457.3,257.3 527.9,258.9 C505.6,277.1 477.6,287.3 448.1,287.7 L448.1,287.9 C448.1,298.9 446.6,309.6 444,319.8 C444.7,319.8 445.4,319.9 446.1,319.9 C494.8,319.9 540.4,298.3 571.1,260.7 C576.4,254.2 577.5,245.2 573.9,237.5 L573.9,237.5 Z M351.3,197.3 C346,158.2 312.5,128 272,128 C263.4,128 255,129.4 246.8,132.3 C227.1,109.3 198.6,96 168,96 C111.5,96 65.3,141.3 64,197.6 C26.2,210.9 0,246.9 0,288 C0,340.9 43.1,384 96,384 L320,384 C372.9,384 416,340.9 416,288 C416,286.7 415.7,285.4 415.7,284 C414,244.4 388.2,210 351.3,197.3 Z M320,352 L96,352 C60.7,352 32,323.3 32,288 C32,257.4 53.8,231 84,225.2 L98.5,222.4 L96.5,204.4 C96.3,202.9 96.1,201.5 96.1,200 C96.1,160.3 128.4,128 168.1,128 C192.4,128 214.9,140.2 228.3,160.8 L236.4,173.2 L249.4,166.1 C282.1,148.3 320.1,174.3 320.2,206.5 L320,222.7 L332.8,225.3 C362.6,231.3 384.1,257.6 384.1,288 C384,323.3 355.3,352 320,352 L320,352 Z M170.2,418.1 C162.6,413.8 152.8,416.3 148.4,424.1 L111.8,488.1 C107.4,495.8 110.1,505.5 117.8,509.9 C120.3,511.3 123,512 125.7,512 C131.2,512 136.6,509.1 139.6,503.9 L176.2,439.9 C180.6,432.2 177.9,422.5 170.2,418.1 L170.2,418.1 Z M74.2,418.1 C66.6,413.8 56.8,416.3 52.4,424.1 L15.8,488.1 C11.4,495.8 14.1,505.5 21.8,509.9 C24.3,511.3 27,512 29.7,512 C35.2,512 40.6,509.1 43.6,503.9 L80.2,439.9 C84.6,432.2 81.9,422.5 74.2,418.1 L74.2,418.1 Z M266.2,418.1 C258.6,413.8 248.8,416.3 244.4,424.1 L207.8,488.1 C203.4,495.8 206.1,505.5 213.8,509.9 C216.3,511.3 219,512 221.7,512 C227.2,512 232.6,509.1 235.6,503.9 L272.2,439.9 C276.6,432.2 273.9,422.5 266.2,418.1 L266.2,418.1 Z M362.2,418.1 C354.6,413.8 344.8,416.3 340.4,424.1 L303.8,488.1 C299.4,495.8 302.1,505.5 309.8,509.9 C312.3,511.3 315,512 317.7,512 C323.2,512 328.6,509.1 331.6,503.9 L368.2,439.9 C372.6,432.2 369.9,422.5 362.2,418.1 L362.2,418.1 Z" id="Shape"></path>
            </g>
        </g>
    </g>
</svg>