<?xml version="1.0" encoding="UTF-8"?>
<svg width="512px" height="513px" viewBox="0 0 512 513" version="1.1" xmlns="http://www.w3.org/2000/svg" xmlns:xlink="http://www.w3.org/1999/xlink">
    <!-- Generator: Sketch 54.1 (76490) - https://sketchapp.com -->
    <title>Shape</title>
    <desc>Created with Sketch.</desc>
    <g id="Page-1" stroke="none" stroke-width="1" fill="none" fill-rule="evenodd">
        <g id="Add-City" transform="translate(-64.000000, -2226.000000)" fill="#FFFFFF" fill-rule="nonzero">
            <g id="thunderstorm-light" transform="translate(64.000000, 2226.000000)">
                <path d="M368,256 L294.2,256 L319.2,181.1 C320.8,176.2 320,170.9 317,166.7 C314,162.5 309.2,160.1 304,160.1 L192,160.1 C184.3,160.1 177.7,165.6 176.2,173.2 L144.2,349.2 C143.4,353.9 144.6,358.7 147.7,362.3 C150.8,365.9 155.2,368.1 160,368.1 L240,368.1 L240,496.1 C240,503.5 245.1,510 252.3,511.7 C253.5,512 254.8,512.1 256,512.1 C262,512.1 267.6,508.8 270.3,503.3 L382.3,279.3 C384.8,274.3 384.5,268.5 381.6,263.7 C378.7,258.9 373.5,256 368,256 Z M272,428.2 L272,352 C272,343.2 264.8,336 256,336 L179.2,336 L205.4,192 L281.9,192 L256.9,266.9 C255.3,271.8 256.1,277.1 259.1,281.3 C262.1,285.5 266.9,287.9 272.1,287.9 L342.2,287.9 L272,428.2 Z M415.7,112.3 C411.8,67.4 373.9,32 328,32 C310.2,32 293.2,37.3 278.8,47.2 C256.3,17.7 221.5,0 184,0 C117.8,0 64,53.8 64,120 L64,120.4 C25.7,136.4 0,173.9 0,216 C0,273.3 46.7,320 104,320 L117,320 L122.8,288 L104,288 C64.3,288 32,255.7 32,216 C32,183.7 53.9,155.3 85.3,146.8 L98.6,143.2 L96.6,126 C96.3,124 96,122 96,120 C96,71.5 135.5,32 184,32 C216.2,32 245.8,49.9 261.2,78.8 L271.8,98.6 L287,82.1 C297.9,70.4 312.4,64 328,64 C358.9,64 384,89.1 384,120 C384,121.6 383.7,123.1 383.2,126.9 L380.7,146.9 L404.2,144.5 C405.4,144.3 406.7,144.1 408,144.1 C447.7,144.1 480,176.4 480,216.1 C480,254.1 450.3,285 413,287.6 C412.3,289.6 411.9,291.6 410.9,293.6 L397.7,320 L408,320 C465.3,320 512,273.3 512,216 C512,161.2 469.4,116.2 415.7,112.3 Z" id="Shape"></path>
            </g>
        </g>
    </g>
</svg>