<?xml version="1.0" encoding="UTF-8"?>
<svg width="640px" height="512px" viewBox="0 0 640 512" version="1.1" xmlns="http://www.w3.org/2000/svg" xmlns:xlink="http://www.w3.org/1999/xlink">
    <!-- Generator: Sketch 54.1 (76490) - https://sketchapp.com -->
    <title>Shape</title>
    <desc>Created with Sketch.</desc>
    <g id="Page-1" stroke="none" stroke-width="1" fill="none" fill-rule="evenodd">
        <g id="Add-City" transform="translate(-640.000000, -2226.000000)" fill="#FFFFFF" fill-rule="nonzero">
            <g id="snowflakes-light" transform="translate(640.000000, 2226.000000)">
                <path d="M527.9,120 C527.9,124.4 531.5,128 535.9,128 L551.9,128 C556.3,128 559.9,124.4 559.9,120 L559.9,91.6 L587.9,107.7 C591.7,109.9 596.6,108.6 598.8,104.8 L606.8,90.9 C609,87.1 607.7,82.2 603.9,80 L576,64 L603.9,48 C607.7,45.8 609,40.9 606.8,37.1 L598.8,23.2 C596.6,19.4 591.7,18.1 587.9,20.3 L559.9,36.4 L559.9,8 C559.9,3.6 556.3,0 551.9,0 L535.9,0 C531.5,0 527.9,3.6 527.9,8 L527.9,36.4 L499.9,20.3 C496.1,18.1 491.2,19.4 489,23.2 L481,37.1 C478.8,40.9 480.1,45.8 483.9,48 L511.8,64 L483.9,80 C480.1,82.2 478.8,87.1 481,90.9 L489,104.8 C491.2,108.6 496.1,109.9 499.9,107.7 L527.9,91.6 L527.9,120 Z M608.1,256 L636,240 C639.8,237.8 641.1,232.9 638.9,229.1 L630.9,215.2 C628.7,211.4 623.8,210.1 620,212.3 L592,228.4 L592,200 C592,195.6 588.4,192 584,192 L568,192 C563.6,192 560,195.6 560,200 L560,228.4 L532,212.3 C528.2,210.1 523.3,211.4 521.1,215.2 L513.1,229.1 C510.9,232.9 512.2,237.8 516,240 L543.9,256 L516,272 C512.2,274.2 510.9,279.1 513.1,282.9 L521.1,296.8 C523.3,300.6 528.2,301.9 532,299.7 L560,283.6 L560,312 C560,316.4 563.6,320 568,320 L584,320 C588.4,320 592,316.4 592,312 L592,283.6 L620,299.7 C623.8,301.9 628.7,300.6 630.9,296.8 L638.9,282.9 C641.1,279.1 639.8,274.2 636,272 L608.1,256 L608.1,256 Z M387.9,333.5 L440.6,319.2 C444.8,318.1 447.3,313.7 446.2,309.4 L442.1,293.9 C441,289.6 436.6,287.1 432.4,288.2 L349.3,310.8 L255.5,256 L349.2,201.2 L432.3,223.8 C436.5,224.9 440.9,222.4 442,218.1 L446.1,202.6 C447.2,198.3 444.7,193.9 440.5,192.8 L387.8,178.5 L443.7,145.8 C447.5,143.6 448.8,138.7 446.6,134.9 L438.7,121 C436.5,117.2 431.7,115.9 427.9,118.1 L372,150.8 L386.1,97.5 C387.2,93.2 384.7,88.8 380.5,87.7 L365.2,83.6 C361,82.5 356.6,85 355.5,89.3 L333.2,173.5 L239.5,228.3 L239.5,118.6 L300.5,57 C303.6,53.9 303.6,48.8 300.5,45.7 L289.3,34.4 C286.2,31.3 281.2,31.3 278.1,34.4 L239.5,73.4 L239.5,8 C239.5,3.6 236,0 231.6,0 L215.8,0 C211.4,0 207.9,3.6 207.9,8 L207.9,73.4 L169.3,34.4 C166.2,31.3 161.2,31.3 158.1,34.4 L146.9,45.7 C143.8,48.8 143.8,53.9 146.9,57 L207.8,118.7 L207.8,228.4 L114.1,173.6 L92.1,89.2 C91,84.9 86.6,82.4 82.4,83.5 L67.1,87.6 C62.9,88.7 60.4,93.1 61.5,97.4 L75.6,150.7 L19.8,118 C16,115.8 11.2,117.1 9,120.9 L1.1,134.8 C-1.1,138.6 0.2,143.5 4,145.7 L59.9,178.4 L7.3,192.8 C3.1,193.9 0.6,198.3 1.7,202.6 L5.8,218.1 C6.9,222.4 11.3,224.9 15.5,223.8 L98.6,201.2 L192.3,256 L98.6,310.8 L15.5,288.2 C11.3,287.1 6.9,289.6 5.8,293.9 L1.7,309.4 C0.6,313.7 3.1,318.1 7.3,319.2 L60,333.5 L4.1,366.1 C0.3,368.3 -1,373.2 1.2,377 L9.1,390.9 C11.3,394.7 16.1,396 19.9,393.8 L75.8,361.1 L61.7,414.4 C60.6,418.7 63.1,423.1 67.3,424.2 L82.6,428.3 C86.8,429.4 91.2,426.9 92.3,422.6 L114.6,338.4 L208.3,283.6 L208.3,393.3 L147.3,455 C144.2,458.1 144.2,463.2 147.3,466.3 L158.5,477.6 C161.6,480.7 166.6,480.7 169.7,477.6 L208.3,438.6 L208.3,504 C208.3,508.4 211.8,512 216.2,512 L232,512 C236.4,512 239.9,508.4 239.9,504 L239.9,438.6 L278.5,477.6 C281.6,480.7 286.6,480.7 289.7,477.6 L300.9,466.3 C304,463.2 304,458.1 300.9,455 L240,393.3 L240,283.7 L333.7,338.5 L356,422.7 C357.1,427 361.5,429.5 365.7,428.4 L381,424.3 C385.2,423.2 387.7,418.8 386.6,414.5 L372.5,361.2 L428.4,393.9 C432.2,396.1 437,394.8 439.2,391 L447.1,377.1 C449.3,373.3 448,368.4 444.2,366.2 L387.9,333.5 L387.9,333.5 Z" id="Shape"></path>
            </g>
        </g>
    </g>
</svg>