<?xml version="1.0" encoding="UTF-8"?>
<svg width="448px" height="448px" viewBox="0 0 448 448" version="1.1" xmlns="http://www.w3.org/2000/svg" xmlns:xlink="http://www.w3.org/1999/xlink">
    <!-- Generator: Sketch 54.1 (76490) - https://sketchapp.com -->
    <title>raindrops-regular</title>
    <desc>Created with Sketch.</desc>
    <g id="Page-1" stroke="none" stroke-width="1" fill="none" fill-rule="evenodd">
        <g id="Add-City" transform="translate(-128.000000, -2893.000000)" fill="#FFFFFF" fill-rule="nonzero">
            <g id="raindrops-regular" transform="translate(128.000000, 2893.000000)">
                <path d="M320,184.7 C334.8,213 351.2,235.1 365.4,254.3 C388.7,285.8 400,302 400,325.5 C400,366.5 364.1,399.9 320,399.9 C275.9,399.9 240,366.5 240,325.5 C240,302.2 251.3,285.9 274.7,254.2 C288.9,235 305.2,212.9 320,184.7 L320,184.7 Z M160,0 C156.1,0 152.1,2.3 150.7,6.9 C135.8,56.2 104,69.6 104,104.3 C104,135.1 129,160 160,160 C191,160 216,135.1 216,104.3 C216,69.4 184.2,56.4 169.3,6.9 C168,2.4 164,0 160,0 Z M320,96 C311,96 302,101 298.8,111.2 C264.7,219.6 192,249.1 192,325.6 C192,393.3 249.2,448 320,448 C390.8,448 448,393.2 448,325.6 C448,248.8 375.4,220.2 341.2,111.2 C338.3,101.2 329.2,96 320,96 Z M56,192 C52.1,192 48.1,194.3 46.7,198.9 C31.8,248.2 0,261.6 0,296.3 C0,327.1 25,352 56,352 C87,352 112,327.1 112,296.3 C112,261.4 80.2,248.4 65.3,198.9 C64,194.4 60,192 56,192 Z" id="Shape"></path>
            </g>
        </g>
    </g>
</svg>